<svg xmlns="http://www.w3.org/2000/svg" width="1280" height="720" viewBox="0 0 1280 720">
  <defs>
    <linearGradient id="bg" x1="0" x2="1" y1="0" y2="1">
      <stop offset="0" stop-color="#eef4f8"/>
      <stop offset="1" stop-color="#d9e4ea"/>
    </linearGradient>
    <filter id="shadow"><feDropShadow dx="0" dy="12" stdDeviation="14" flood-opacity=".25"/></filter>
  </defs>
  <rect width="1280" height="720" fill="url(#bg)"/>
  <g font-family="Yu Gothic, Meiryo, sans-serif" font-weight="900">
    <text x="58" y="78" font-size="42" fill="#102a43">図面指示と割れ注意</text>
    <g transform="translate(70 130)" filter="url(#shadow)">
      <rect width="520" height="420" rx="18" fill="#f8fafc" stroke="#94a3b8" stroke-width="4"/>
      <rect x="48" y="68" width="260" height="145" fill="#fff" stroke="#111827" stroke-width="4"/>
      <line x1="48" y1="238" x2="438" y2="238" stroke="#111827" stroke-width="4"/>
      <line x1="88" y1="68" x2="88" y2="213" stroke="#111827" stroke-width="2" stroke-dasharray="8 8"/>
      <path d="M308 146l90 0l36 62" fill="none" stroke="#0f5faf" stroke-width="5"/>
      <rect x="250" y="282" width="235" height="76" rx="12" fill="#0f5faf"/>
      <text x="274" y="330" font-size="24" fill="#fff">図面指示</text>
      <text x="44" y="390" font-size="27" fill="#111827">紙基材フェノール樹脂積層板 t3.0</text>
    </g>
    <g transform="translate(690 150)" filter="url(#shadow)">
      <rect width="230" height="260" rx="18" fill="#fff"/>
      <rect x="38" y="62" width="154" height="110" rx="9" fill="#6e3a20" stroke="#24130b" stroke-width="4"/>
      <circle cx="116" cy="116" r="25" fill="#d7e2ea" stroke="#111827" stroke-width="5"/>
      <text x="72" y="218" font-size="42" fill="#16834f">OK</text>
    </g>
    <g transform="translate(970 150)" filter="url(#shadow)">
      <rect width="230" height="260" rx="18" fill="#fff"/>
      <rect x="38" y="62" width="154" height="110" rx="9" fill="#6e3a20" stroke="#24130b" stroke-width="4"/>
      <circle cx="66" cy="116" r="25" fill="#d7e2ea" stroke="#111827" stroke-width="5"/>
      <path d="M43 92l-34-28M43 140L6 178M42 116H6" stroke="#c9342d" stroke-width="6" stroke-linecap="round"/>
      <text x="76" y="218" font-size="42" fill="#c9342d">NG</text>
    </g>
    <rect x="682" y="470" width="520" height="82" rx="18" fill="#fff" stroke="#cbd5e1" stroke-width="4"/>
    <text x="714" y="522" font-size="30" fill="#111827">端穴・薄肉は割れや欠けに注意</text>
  </g>
</svg>
