<svg xmlns="http://www.w3.org/2000/svg" width="1280" height="720" viewBox="0 0 1280 720">
  <defs>
    <linearGradient id="bg" x1="0" x2="1" y1="0" y2="1">
      <stop offset="0" stop-color="#edf4f8"/>
      <stop offset="1" stop-color="#cbd7df"/>
    </linearGradient>
    <linearGradient id="top" x1="0" x2="1">
      <stop offset="0" stop-color="#4d2b19"/>
      <stop offset=".55" stop-color="#7b4523"/>
      <stop offset="1" stop-color="#2d180f"/>
    </linearGradient>
    <filter id="shadow" x="-20%" y="-20%" width="140%" height="140%">
      <feDropShadow dx="0" dy="16" stdDeviation="18" flood-color="#1b2a35" flood-opacity=".28"/>
    </filter>
  </defs>
  <rect width="1280" height="720" fill="url(#bg)"/>
  <rect x="0" y="540" width="1280" height="180" fill="#d7c9b7" opacity=".55"/>
  <g transform="translate(145 150)" filter="url(#shadow)">
    <path d="M120 0h720l170 95H295z" fill="url(#top)" stroke="#1c130e" stroke-width="4"/>
    <path d="M295 95h715v290H295z" fill="#6b3a1f" stroke="#1c130e" stroke-width="4"/>
    <path d="M120 0l175 95v290L120 285z" fill="#3a2115" stroke="#1c130e" stroke-width="4"/>
    <g opacity=".95">
      <rect x="320" y="128" width="655" height="14" fill="#c48445"/>
      <rect x="320" y="164" width="655" height="12" fill="#2b1910"/>
      <rect x="320" y="198" width="655" height="14" fill="#b9783c"/>
      <rect x="320" y="236" width="655" height="12" fill="#2b1910"/>
      <rect x="320" y="270" width="655" height="14" fill="#c48445"/>
      <rect x="320" y="308" width="655" height="12" fill="#2b1910"/>
      <rect x="320" y="342" width="655" height="14" fill="#b9783c"/>
    </g>
  </g>
  <g font-family="Yu Gothic, Meiryo, sans-serif" font-weight="900">
    <rect x="58" y="48" width="380" height="82" rx="18" fill="#102a43"/>
    <text x="82" y="102" font-size="42" fill="#fff">ベーク板</text>
    <path d="M815 118l-115 78" stroke="#0f5faf" stroke-width="8" fill="none" stroke-linecap="round"/>
    <circle cx="815" cy="118" r="9" fill="#0f5faf"/>
    <rect x="820" y="76" width="330" height="72" rx="15" fill="#fff" stroke="#0f5faf" stroke-width="4"/>
    <text x="846" y="123" font-size="32" fill="#0f4f8d">フェノール樹脂</text>
    <path d="M920 428l-188-84" stroke="#16834f" stroke-width="8" fill="none" stroke-linecap="round"/>
    <circle cx="920" cy="428" r="9" fill="#16834f"/>
    <rect x="928" y="392" width="260" height="72" rx="15" fill="#fff" stroke="#16834f" stroke-width="4"/>
    <text x="954" y="439" font-size="32" fill="#0b6b43">紙/布の層</text>
    <rect x="64" y="604" width="760" height="60" rx="16" fill="#fff" opacity=".94"/>
    <text x="92" y="644" font-size="30" fill="#111827">基材（紙/布）に樹脂をしみ込ませて固めた積層板</text>
  </g>
</svg>
